<?xml version="1.0" standalone="no"?>
<!DOCTYPE svg PUBLIC "-//W3C//DTD SVG 1.1//EN" "http://www.w3.org/Graphics/SVG/1.1/DTD/svg11.dtd" >
<svg xmlns="http://www.w3.org/2000/svg">
<metadata>Generated by IcoMoon</metadata>
<defs>
<font id="icomoon" horiz-adv-x="1024">
<font-face units-per-em="1024" ascent="960" descent="-64" />
<missing-glyph horiz-adv-x="1024" />
<glyph unicode="&#x20;" horiz-adv-x="512" d="" />
<glyph unicode="&#xe900;" glyph-name="rub" d="M217.207 215.275h108.608v-93.103c0-4.531 1.449-8.239 4.365-11.136 2.908-2.918 6.626-4.378 11.154-4.378h80.966c4.202 0 7.84 1.459 10.908 4.378 3.072 2.897 4.604 6.605 4.604 11.136v93.103h244.847c4.518 0 8.239 1.438 11.153 4.356 2.918 2.914 4.365 6.626 4.365 11.157v62.063c0 4.501-1.446 8.235-4.365 11.136-2.906 2.918-6.635 4.373-11.153 4.373h-244.855v57.216h164.851c64.64 0 117.402 19.699 158.302 59.149 40.883 39.411 61.338 90.317 61.338 152.725 0 62.367-20.454 113.276-61.338 152.725-40.892 39.411-93.662 59.148-158.302 59.148h-261.327c-4.53 0-8.24-1.457-11.154-4.358-2.908-2.916-4.365-6.65-4.365-11.154v-304.979h-108.6c-4.529 0-8.239-1.532-11.154-4.599-2.906-3.072-4.365-6.707-4.365-10.91v-72.235c0-4.531 1.449-8.239 4.365-11.153 2.916-2.918 6.618-4.361 11.154-4.361h108.608v-57.212h-108.608c-4.529 0-8.239-1.459-11.154-4.378-2.906-2.897-4.365-6.626-4.365-11.136v-62.063c0-4.531 1.449-8.243 4.365-11.157 2.915-2.918 6.624-4.356 11.154-4.356zM437.803 686.041h155.153c34.257 0 61.888-10.017 82.906-30.057 21.009-20.041 31.514-46.232 31.514-78.542 0-32.326-10.505-58.526-31.514-78.541-21.018-20.058-48.649-30.076-82.906-30.076h-155.153v217.216z" />
<glyph unicode="&#xe901;" glyph-name="refresh" d="M256 448h128l-170-170.001-172 170.001h128c0 93.332 33.333 173.335 100 240 68 68 148.668 102 242 102 66.668 0 127.334-18 181.999-54l-61.998-62c-36.002 20-76.001 30-120.001 30-70.667 0-131.334-25.333-181.999-76.001-49.334-49.331-74.001-109.332-74.001-179.999zM810.001 618.001l171.998-170.001h-128c0-93.332-34-174-101.999-242-66.665-66.668-146.668-99.999-240-99.999-66.668 0-127.334 18-181.999 53.999l61.998 62c36.002-19.999 76.001-30 120.001-30 70.667 0 130.668 24.667 179.999 74.001 50.668 50.665 76.001 111.332 76.001 181.999h-128l170.001 170.001z" />
<glyph unicode="&#xe902;" glyph-name="discount" d="M390 600c-16.524 0-30-13.448-30-30s13.476-30.002 30-30.002c16.524 0 30.002 13.45 30.002 30.002s-13.477 30-30.002 30zM634.002 356.001c-16.526 0-30.003-13.45-30.003-30.003 0-16.549 13.477-29.999 30.003-29.999 16.522 0 29.999 13.45 29.999 29.999 0 16.553-13.477 30.003-29.999 30.003zM514.001 960c-281.193 0-514.001-228.78-514.001-509.999 0-281.222 232.808-514.001 514.001-514.001 281.19 0 509.999 232.779 509.999 514.001 0 281.219-228.809 509.999-509.999 509.999zM514.001 55.599c-215.041 0-394.401 179.361-394.401 394.401s179.36 390.399 394.401 390.399c215.040 0 390.4-175.36 390.4-390.399s-175.36-394.401-390.4-394.401zM514.001 780c-181.935 0-334.001-148.038-334.001-329.999s152.066-334.001 334.001-334.001c181.933 0 330 152.040 330 334.001s-148.066 329.999-330 329.999zM300 570c0 49.628 40.372 90 90 90s90-40.372 90-90c0-49.627-40.373-90-90-90s-90 40.373-90 90zM414.96 249.36c-9.291-13.887-27.938-17.432-41.602-8.318-13.77 9.196-17.52 27.802-8.32 41.602l244.002 363.998c9.255 13.828 27.888 17.46 41.602 8.32 13.769-9.2 17.518-27.802 8.318-41.602l-244-364zM634.002 236c-49.629 0-90.002 40.373-90.002 89.998 0 49.629 40.373 90.002 90.002 90.002 49.625 0 89.998-40.373 89.998-90.002 0-49.625-40.373-89.998-89.998-89.998z" />
<glyph unicode="&#xe903;" glyph-name="chevron-down" d="M341.338 424.438c-22.217 22.216-22.217 58.237 0 80.453s58.237 22.216 80.453 0l80.596-80.596c5.312-5.312 13.924-5.312 19.236 0l80.598 80.596c22.215 22.216 58.237 22.216 80.452 0s22.215-58.237 0-80.453l-148.173-148.174c-12.424-12.419-32.567-12.419-44.991 0l-148.171 148.174z" />
<glyph unicode="&#xe904;" glyph-name="fire" d="M893.81 360.464c-11.729 152.718-82.834 248.418-145.562 332.87-58.084 78.184-108.249 145.7-108.249 245.296 0 8-4.478 15.312-11.583 18.978-7.129 3.688-15.691 3.084-22.166-1.624-94.208-67.412-172.812-181.030-200.271-289.438-19.063-75.474-21.585-160.324-21.938-216.36-87 18.582-106.708 148.718-106.916 150.136-0.98 6.75-5.104 12.624-11.104 15.832-6.062 3.166-13.188 3.396-19.334 0.354-4.562-2.208-111.98-56.79-118.23-274.709-0.438-7.251-0.458-14.525-0.458-21.792 0-211.716 172.27-383.976 384-383.976 0.291-0.020 0.603-0.063 0.855 0h0.268c211.212 0.607 382.878 172.635 382.878 383.976 0 10.646-2.19 40.456-2.19 40.456zM512-21.303c-70.585 0-128 61.16-128 136.342 0 2.564-0.020 5.148 0.166 8.314 0.854 31.705 6.876 53.35 13.481 67.745 12.375-26.581 34.501-51.019 70.435-51.019 11.796 0 21.335 9.543 21.335 21.335 0 30.369 0.626 65.41 8.188 97.036 6.731 28.038 22.812 57.872 43.189 81.786 9.062-31.043 26.73-56.162 43.981-80.683 24.686-35.080 50.208-71.349 54.686-133.199 0.272-3.667 0.544-7.357 0.544-11.315-0.004-75.177-57.419-136.342-128.004-136.342z" />
<glyph unicode="&#xe905;" glyph-name="hit" d="M137.005 446.216c1.84 3.048 1.892 6.849 0.137 9.945l-91.298 161.061c-3.721 6.564 1.020 14.701 8.565 14.701h63.909c3.633 0 6.97-2 8.683-5.203l53.589-100.23c0.256-0.48 0.471-0.977 0.645-1.489l2.825-8.357c3.037-8.984 15.772-8.905 18.695 0.118l2.619 8.086c0.199 0.614 0.458 1.209 0.774 1.772l56.089 100.264c1.74 3.112 5.027 5.039 8.593 5.039h55.145c7.651 0 12.379-8.346 8.445-14.908l-94.221-157.191c-1.847-3.080-1.869-6.924-0.057-10.027l99.819-170.917c3.834-6.561-0.901-14.813-8.502-14.813h-62.781c-3.539 0-6.805 1.902-8.556 4.974l-61.395 107.819c-0.273 0.477-0.505 0.977-0.694 1.497l-4.48 12.28c-3.168 8.68-15.475 8.609-18.539-0.114l-4.249-12.091c-0.199-0.567-0.451-1.115-0.75-1.638l-61.874-107.78c-1.755-3.060-5.012-4.947-8.539-4.947h-55.151c-7.666 0-12.391 8.377-8.428 14.939l100.985 167.211zM600.229 467.964l4.057 46.151c0.079 0.898-0.626 1.67-1.528 1.67v0c-0.583 0-1.115-0.327-1.375-0.847l-24.277-48.549-134.227-197.998c-1.831-2.706-4.884-4.324-8.149-4.324h-39.062c-5.438 0-9.847 4.411-9.847 9.846v348.165c0 5.438 4.408 9.846 9.847 9.846h52.303c5.435 0 9.846-4.408 9.846-9.846v-190.37l-5.041-47.38c-0.114-1.079 0.733-2.020 1.816-2.020v0c0.689 0 1.319 0.39 1.631 1.004l25.242 49.971 134.223 194.389c1.839 2.662 4.868 4.252 8.101 4.252h38.589c5.439 0 9.846-4.408 9.846-9.846v-348.165c0-5.435-4.407-9.846-9.846-9.846h-52.303c-5.439 0-9.846 4.411-9.846 9.846v194.052zM996.998 577.657c0-5.438-4.411-9.846-9.846-9.846h-87.513c-5.439 0-9.846-4.406-9.846-9.845v-284.054c0-5.435-4.407-9.846-9.846-9.846h-52.303c-5.439 0-9.846 4.411-9.846 9.846v284.054c0 5.439-4.407 9.845-9.846 9.845h-88.036c-5.439 0-9.846 4.408-9.846 9.846v44.42c0 5.438 4.407 9.846 9.846 9.846h267.236c5.435 0 9.846-4.408 9.846-9.846v-44.42zM750.316 904.207c-74.24 37.021-154.427 55.793-238.332 55.793-83.901 0-164.087-18.77-238.331-55.793-55.946-27.898-106.846-65.937-149.352-111.366-18.502-19.774-13.977-50.794 7.862-66.807v0c21.133-15.495 50.582-11.054 68.733 7.848 80.512 83.841 191.506 131.104 311.093 131.104s230.581-47.262 311.091-131.104c18.152-18.901 47.6-23.343 68.73-7.848v0c21.839 16.013 26.364 47.033 7.861 66.807-42.508 45.429-93.408 83.468-149.354 111.366zM891.809 169.968c-21.13 15.498-50.582 11.055-68.73-7.845-80.514-83.846-191.508-131.107-311.091-131.107s-230.58 47.262-311.090 131.107c-18.15 18.901-47.599 23.343-68.733 7.845v0c-21.84-16.010-26.365-47.033-7.862-66.808 42.508-45.426 93.407-83.464 149.353-111.364 74.242-37.022 154.427-55.792 238.332-55.792 83.901 0 164.088 18.771 238.332 55.792 55.942 27.9 106.847 65.938 149.35 111.368 18.503 19.771 13.978 50.794-7.861 66.804v0z" />
<glyph unicode="&#xe906;" glyph-name="search" d="M270 418c37.334-37.333 82.666-55.999 135.999-55.999s98.668 18.665 136.001 55.999c37.333 37.333 55.999 82.668 55.999 136.001s-18.665 98.665-55.999 135.999c-37.333 37.333-82.668 56-136.001 56s-98.665-18.667-135.999-56c-37.333-37.334-56-82.666-56-135.999s18.667-98.668 56-136.001zM661.999 362.001l212.002-212.002-64-64-212.002 212.002v34l-11.998 12.001c-50.668-44.001-110.669-66.002-180.002-66.002-77.332 0-143.332 26.667-197.999 80-53.333 53.333-80 118.667-80 196.002 0 77.332 26.667 142.666 80 195.999 54.667 54.667 120.667 82 197.999 82 77.335 0 142.669-27.333 196.002-82 53.333-53.333 80-118.667 80-195.999 0-69.333-22.002-129.334-66.002-180.002l12.001-11.998h34z" />
<glyph unicode="&#xe907;" glyph-name="close" d="M810.001 686l-238.003-238 238.003-237.999-60.002-60.002-237.999 238.003-238-238.003-60 60.002 238.002 237.999-238.002 238 60 60 238-238.002 237.999 238.002 60.002-60z" />
<glyph unicode="&#xe908;" glyph-name="close-small" d="M512.003 373.225l-136.726-136.727c-20.65-20.645-54.129-20.645-74.778 0-20.65 20.651-20.65 54.13 0 74.78l136.726 136.725-136.726 136.725c-20.65 20.65-20.65 54.129 0 74.778s54.128 20.649 74.778 0l136.726-136.726 136.723 136.726c20.651 20.649 54.13 20.649 74.78 0s20.651-54.129 0-74.778l-136.727-136.725 136.727-136.725c20.651-20.651 20.651-54.13 0-74.78-20.651-20.645-54.13-20.645-74.78 0l-136.723 136.727z" />
<glyph unicode="&#xe909;" glyph-name="place" horiz-adv-x="717" d="M267.2 510.397c25.6-24 56-35.999 91.2-35.999s64.799 11.999 88.801 35.999c25.6 25.6 38.4 56 38.4 91.2s-12.8 64.801-38.4 88.801c-24.003 25.6-53.601 38.4-88.801 38.4s-65.6-12.8-91.2-38.4c-24-24-36-53.601-36-88.801s12-65.6 36-91.2zM104 853.598c70.4 70.4 155.2 105.6 254.4 105.6s183.199-35.2 252.001-105.6c70.4-68.8 105.6-152.801 105.6-252.001 0-49.6-12.8-106.399-38.4-170.399-24.003-64-53.601-124.001-88.801-180.001s-70.4-108.8-105.6-158.4c-33.6-48-62.4-86.4-86.4-115.2l-38.4-40.799c-9.6 11.2-22.4 25.6-38.4 43.2-16 19.2-44.8 56-86.4 110.4-41.6 56-78.4 109.599-110.4 160.799-30.4 52.8-58.4 112-84 177.6s-38.4 123.2-38.4 172.8c0 99.2 34.4 183.201 103.2 252.001z" />
<glyph unicode="&#xe90a;" glyph-name="heart-outline" d="M888.909 725.716v0zM469.35 625.876c0-23.564 19.102-42.667 42.667-42.667s42.667 19.102 42.667 42.667h-85.333zM135.092 725.716v0zM512.009 85.188l-17.6-38.869c11.187-5.065 24.013-5.065 35.2 0l-17.6 38.869zM922.709 751.752c-75.831 98.454-189.577 118.629-282.667 89.353-91.315-28.718-170.692-108.291-170.692-215.229h85.333c0 60.486 45.577 113.264 110.959 133.826 63.612 20.004 138.313 6.387 189.461-60.022l67.605 52.071zM554.684 625.876c0 106.938-79.381 186.513-170.704 215.232-93.095 29.276-206.847 9.102-282.689-89.355l67.602-52.074c51.159 66.415 125.871 80.032 189.487 60.026 65.391-20.564 110.97-73.344 110.97-133.829h85.333zM101.288 751.749c-78.762-102.273-75.349-238.563-6.567-366.144 68.737-127.497 203.959-250.662 399.688-339.285l35.2 77.739c-183.074 82.889-301.94 194.765-359.775 302.042-57.791 107.196-53.435 205.414-0.937 273.584l-67.608 52.066zM529.609 46.319c195.721 88.623 330.94 211.789 399.671 339.285 68.779 127.582 72.192 263.872-6.566 366.144l-67.61-52.066c52.497-68.17 56.853-166.388-0.934-273.584-57.835-107.277-176.695-219.153-359.761-302.042l35.2-77.739z" />
<glyph unicode="&#xe90b;" glyph-name="heart" d="M888.909 725.716c-126.985 164.863-376.892 67.584-376.892-99.84 0 167.423-249.923 264.711-376.925 99.84-131.259-170.444-1.886-469.016 376.916-640.528 378.786 171.511 508.16 470.084 376.9 640.528zM888.909 725.716v0zM135.092 725.716v0zM512.009 85.188l-17.6-38.869c11.187-5.065 24.013-5.065 35.2 0l-17.6 38.869zM922.709 751.752c-75.831 98.454-189.577 118.629-282.667 89.353-91.315-28.718-170.692-108.291-170.692-215.229h85.333c0 60.486 45.577 113.264 110.959 133.826 63.612 20.004 138.313 6.387 189.461-60.022l67.605 52.071zM554.684 625.876c0 106.938-79.381 186.513-170.704 215.232-93.095 29.276-206.847 9.102-282.689-89.355l67.602-52.074c51.159 66.415 125.871 80.032 189.487 60.026 65.391-20.564 110.97-73.344 110.97-133.829h85.333zM101.288 751.749c-78.762-102.273-75.349-238.563-6.567-366.144 68.737-127.497 203.959-250.662 399.688-339.285l35.2 77.739c-183.074 82.889-301.94 194.765-359.775 302.042-57.791 107.196-53.435 205.414-0.937 273.584l-67.608 52.066zM529.609 46.319c195.721 88.623 330.94 211.789 399.671 339.285 68.779 127.582 72.192 263.872-6.566 366.144l-67.61-52.066c52.497-68.17 56.853-166.388-0.934-273.584-57.835-107.277-176.695-219.153-359.761-302.042l35.2-77.739z" />
<glyph unicode="&#xe90c;" glyph-name="plus" d="M810.001 405.999h-256v-256h-84.002v256h-255.999v84.002h255.999v255.999h84.002v-255.999h256v-84.002z" />
<glyph unicode="&#xe90d;" glyph-name="delete" d="M810.001 790v-86h-596.001v86h148l44 42h212.001l43.998-42h148.002zM256 149.999v512.001h512v-512.001c0-22.665-8.666-42.667-26.001-59.998-17.331-17.335-37.333-26.001-59.998-26.001h-340.001c-22.666 0-42.667 8.666-60 26.001-17.334 17.331-26 37.333-26 59.998z" />
<glyph unicode="&#xe90e;" glyph-name="edit" d="M884.002 660l-78.003-78-160 160 78.003 78c7.996 8 17.997 12 29.999 12 11.998 0 21.999-4 29.999-12l100.002-100c7.996-8 11.998-18 11.998-30s-4.002-22-11.998-30zM128 224l472 472 160-160-472-472h-160v160z" />
<glyph unicode="&#xe90f;" glyph-name="info-outline" d="M469.999 576v86h84.002v-86h-84.002zM270 205.999c68-66.667 148.667-99.998 242-99.998s173.333 33.331 240 99.998c68.002 68.002 101.999 148.668 101.999 242.001s-33.997 173.333-101.999 240c-66.667 68-146.667 102-240 102s-174-34-242-102c-66.667-66.667-100-146.667-100-240s33.333-173.999 100-242.001zM210 748c84 84 184.666 126 302 126s217.335-42 299.998-126c84.002-82.667 126.003-182.667 126.003-300s-42.001-218.001-126.003-301.999c-82.662-82.667-182.665-124.002-299.998-124.002s-218 41.335-302 124.002c-82.667 83.998-124 184.666-124 301.999s41.334 217.333 124 300zM469.999 234.001v256h84.002v-256h-84.002z" />
<glyph unicode="&#xe910;" glyph-name="minus" d="M810.001 405.999h-596.001v84.002h596.001v-84.002z" />
<glyph unicode="&#xe911;" glyph-name="new" d="M743.259 904.207c-74.24 37.021-154.427 55.793-238.332 55.793-83.901 0-164.087-18.77-238.331-55.793-55.946-27.898-106.846-65.937-149.352-111.366-18.502-19.774-13.977-50.794 7.862-66.807v0c21.133-15.495 50.582-11.054 68.733 7.848 80.512 83.841 191.506 131.104 311.093 131.104s230.581-47.262 311.091-131.104c18.152-18.901 47.6-23.343 68.73-7.848v0c21.839 16.013 26.364 47.033 7.861 66.807-42.508 45.429-93.408 83.468-149.354 111.366zM884.752 169.968c-21.13 15.498-50.582 11.055-68.73-7.845-80.514-83.846-191.508-131.107-311.091-131.107s-230.58 47.262-311.090 131.107c-18.15 18.901-47.599 23.343-68.733 7.849v0c-21.84-16.014-26.365-47.037-7.862-66.812 42.508-45.426 93.407-83.464 149.353-111.364 74.242-37.022 154.427-55.792 238.332-55.792 83.901 0 164.088 18.771 238.332 55.792 55.942 27.9 106.847 65.938 149.35 111.368 18.503 19.775 13.978 50.794-7.861 66.804v0zM90.352 455.133c-0.293 0.414-0.555 0.851-0.781 1.304l-27.677 55.355c-0.247 0.492-0.751 0.803-1.302 0.803v0c-0.888 0-1.569-0.788-1.441-1.666l7.923-54.469c0.068-0.469 0.102-0.945 0.102-1.418v-178.046c0-5.439-4.408-9.846-9.846-9.846h-47.482c-5.438 0-9.846 4.407-9.846 9.846v344.6c0 5.438 4.408 9.846 9.846 9.846h36.744c3.189 0 6.18-1.544 8.027-4.143l133.539-187.963c0.3-0.421 0.566-0.866 0.796-1.331l26.642-53.784c0.245-0.496 0.748-0.807 1.3-0.807v0c0.887 0 1.566 0.788 1.434 1.662l-7.91 52.901c-0.072 0.484-0.108 0.969-0.108 1.457v179.578c0 5.438 4.408 9.846 9.846 9.846h47.483c5.438 0 9.846-4.408 9.846-9.846v-344.6c0-5.439-4.408-9.846-9.846-9.846h-36.745c-3.188 0-6.179 1.54-8.025 4.139l-132.515 186.427zM339.608 619.012c0 5.438 4.408 9.846 9.846 9.846h194.75c5.439 0 9.846-4.408 9.846-9.846v-43.349c0-5.438-4.407-9.845-9.846-9.845h-123.959c-5.439 0-9.846-4.411-9.846-9.846v-64.536c0-5.439 4.407-9.846 9.846-9.846h111.041c5.439 0 9.846-4.407 9.846-9.846v-43.351c0-5.435-4.407-9.846-9.846-9.846h-111.041c-5.439 0-9.846-4.407-9.846-9.846v-68.667c0-5.439 4.407-9.846 9.846-9.846h126.543c5.439 0 9.846-4.407 9.846-9.846v-43.347c0-5.439-4.407-9.846-9.846-9.846h-197.334c-5.438 0-9.846 4.407-9.846 9.846v342.016zM703.626 426.819l6.609-63.047c0.059-0.583 0.555-1.028 1.142-1.028v0c0.587 0 1.079 0.441 1.146 1.024l7.014 63.134c0.071 0.63 0.201 1.252 0.39 1.859l60.593 193.198c1.288 4.105 5.092 6.899 9.393 6.899h32c4.324 0 8.141-2.822 9.413-6.957l59.601-194.208c0.181-0.583 0.303-1.182 0.374-1.784l7.014-62.137c0.067-0.587 0.563-1.028 1.15-1.028v0c0.591 0 1.083 0.437 1.154 1.020l7.629 64.087 42.232 193.263c0.985 4.521 4.99 7.744 9.618 7.744h50.995c6.495 0 11.209-6.18 9.496-12.446l-94.338-344.604c-1.17-4.277-5.061-7.243-9.496-7.243h-32.851c-4.277 0-8.062 2.761-9.374 6.833l-62.165 193.453c-0.154 0.48-0.268 0.969-0.347 1.465l-8.464 53.268c-0.118 0.736-0.752 1.276-1.493 1.276v0c-0.744 0-1.378-0.54-1.497-1.276l-8.464-53.784c-0.079-0.496-0.197-0.989-0.351-1.465l-61.653-192.926c-1.304-4.076-5.096-6.845-9.381-6.845h-35.407c-4.443 0-8.334 2.974-9.5 7.259l-93.85 344.6c-1.705 6.263 3.009 12.433 9.5 12.433h56.328c4.561 0 8.523-3.131 9.578-7.568l46.257-194.472z" />
<glyph unicode="&#xe912;" glyph-name="onion" d="M450.595-23.749c10.63-24.45 34.749-40.267 61.408-40.267s50.779 15.817 61.408 40.267c-40.791-4.927-82.026-4.927-122.817 0zM808.342 574.178c-0.224 0.232-0.449 0.446-0.654 0.678-14.478 16.23-30.342 31.166-47.411 44.642-40.389 30.796-78.115 64.94-112.774 102.070-54.268 60.232-80.644 108.322-80.644 147v73.146c0 10.098-8.184 18.286-18.286 18.286-10.098 0-18.286-8.186-18.286-18.286v-18.286c0-10.098-8.184-18.286-18.282-18.286-10.102 0-18.286 8.186-18.286 18.286v18.286c0 10.098-8.188 18.286-18.286 18.286s-18.286-8.186-18.286-18.286v-73.142c0-38.678-26.376-86.768-80.643-147-34.66-37.134-72.388-71.278-112.786-102.070-17.022-13.438-32.84-28.334-47.276-44.518l-0.678-0.714-0.41-0.41c-55.87-62.23-86.952-142.803-87.352-226.432 0-192.859 165.080-338.286 384-338.286s384 145.428 384 338.286c-0.445 83.771-31.642 164.466-87.658 226.751zM363.776 80.731c-2.172-4.336-5.98-7.629-10.584-9.157s-9.626-1.162-13.96 1.016c-94.99 47.644-156.374 157.696-156.374 280.391 0 122.715 61.384 232.769 156.376 280.395 5.838 2.934 12.798 2.528 18.256-1.064s8.584-9.824 8.2-16.346c-0.384-6.522-4.22-12.344-10.062-15.27-82.742-41.482-136.196-138.715-136.196-247.715 0-108.981 53.464-206.214 136.196-247.713 4.334-2.17 7.63-5.979 9.158-10.579 1.526-4.604 1.164-9.622-1.010-13.958zM450.623 78.001c3.714-3.119 6.034-7.589 6.455-12.422 0.417-4.832-1.099-9.633-4.222-13.347-6.498-7.727-18.030-8.728-25.765-2.233-59.501 50.003-97.947 164.037-97.947 290.521 0 126.499 38.446 240.534 97.955 290.517 5.002 4.22 11.874 5.446 18.026 3.216 6.148-2.23 10.642-7.576 11.776-14.020s-1.264-13.002-6.282-17.198c-50.779-42.662-84.903-148.161-84.903-262.519-0.002-114.337 34.124-219.837 84.907-262.514zM530.286 64c0-10.098-8.188-18.286-18.286-18.286s-18.286 8.188-18.286 18.286v548.572c0 10.098 8.188 18.286 18.286 18.286s18.286-8.186 18.286-18.286v-548.572zM596.909 49.999c-7.731-6.498-19.267-5.498-25.765 2.233-6.502 7.731-5.502 19.267 2.229 25.769 50.786 42.677 84.909 148.177 84.909 262.518 0 114.357-34.123 219.857-84.901 262.517-5.018 4.196-7.416 10.754-6.282 17.198s5.624 11.79 11.776 14.020c6.152 2.23 13.024 1.002 18.026-3.216 59.51-49.982 97.953-164.019 97.953-290.519 0.004-126.484-38.443-240.518-97.946-290.521zM684.768 72.59c-5.837-2.934-12.8-2.528-18.255 1.063-5.459 3.592-8.586 9.826-8.2 16.349 0.382 6.522 4.218 12.343 10.059 15.269 82.735 41.5 136.196 138.732 136.196 247.713 0 109.001-53.453 206.23-136.196 247.713-5.841 2.926-9.677 8.746-10.059 15.27-0.386 6.522 2.741 12.754 8.2 16.346 5.455 3.592 12.418 3.998 18.255 1.064 94.992-47.626 156.377-157.679 156.377-280.393-0.004-122.699-61.385-232.751-156.377-280.395z" />
<glyph unicode="&#xe913;" glyph-name="salad" d="M994.001 376.001h-964.001c-9.484 0-18.408-4.486-24.068-12.091-5.662-7.613-7.392-17.447-4.666-26.533l21.516-71.719c13.076-43.583 39.282-80.979 75.788-108.138s79.854-41.519 125.356-41.519h576.149c45.501 0 88.848 14.36 125.357 41.519 36.506 27.16 62.708 64.555 75.788 108.138l21.516 71.719c2.725 9.086 0.996 18.92-4.667 26.533-5.66 7.605-14.588 12.091-24.068 12.091zM202 56.001v-40.003c0-16.565 13.432-29.999 30-29.999h560.001c16.565 0 29.999 13.434 29.999 29.999v40.003h-620zM573.834 436c3.994 13.985 6.179 28.735 6.179 44 0 88.366-71.637 160-160 160-42.461 0-81.033-16.558-109.667-43.554l160.446-160.447h103.042zM199.821 436.007v83.684l-83.686-83.684h83.686zM157.386 562.097h-157.386c5.142-39.597 20.506-78.112 46.090-111.297l111.296 111.297zM199.818 622.113l-111.104 111.104c-13.030 13.030-34.524 11.27-45.476-3.55-23.886-32.32-38.292-69.44-43.238-107.554h199.818zM259.808 562.097v-126.113h126.112l-126.112 126.113zM1024 640c0 73.326-52.89 134.534-122.522 147.478-12.946 69.632-74.153 122.522-147.48 122.522-73.322 0-134.534-52.89-147.476-122.522-53.717-9.986-97.445-48.71-114.637-99.55 86.111-29.854 148.114-111.782 148.114-207.928 0-14.777-1.516-29.511-4.474-44h88.474v107.945l-81.68 54.455c-13.785 9.19-17.51 27.816-8.318 41.602 9.188 13.786 27.813 17.51 41.602 8.32l48.396-32.268v123.098c0 16.154 12.414 30.054 28.55 30.814 17.231 0.812 31.453-12.916 31.453-29.966v-123.946l48.396 32.266c13.789 9.19 32.414 5.466 41.602-8.32 9.192-13.786 5.467-32.412-8.318-41.602l-81.68-54.453v-107.945h192.339c5.081 14.060 7.66 28.802 7.66 44 0 16.837-3.253 33.3-9.535 48.699 31.417 28.14 49.534 68.073 49.534 111.301v0z" />
<glyph unicode="&#xe914;" glyph-name="chevron-left" d="M488.445 618.662c22.216 22.217 58.237 22.217 80.456 0 22.215-22.216 22.215-58.237 0-80.453l-80.598-80.596c-5.312-5.312-5.312-13.924 0-19.236l80.598-80.598c22.215-22.215 22.215-58.237 0-80.452-22.219-22.215-58.239-22.215-80.456 0l-148.172 148.173c-12.423 12.424-12.424 32.567 0 44.991l148.172 148.171z" />
<glyph unicode="&#xe915;" glyph-name="map-marker" d="M850.752 781.395c-75.014 114.307-198.848 178.605-338.159 178.605-138.121 0-261.954-64.298-339.349-178.605-77.395-111.925-95.256-254.809-47.628-379.832 13.098-33.34 33.34-67.87 59.535-98.83l301.246-354.829c7.144-7.142 14.289-11.904 25.005-11.904s17.86 4.762 25.005 11.904l302.435 354.829c26.195 30.96 47.629 64.3 59.539 98.83 47.629 125.023 29.766 267.907-47.629 379.832zM512.593 359.889c-102.4 0-186.94 84.54-186.94 186.94s84.54 186.94 186.94 186.94c102.4 0 186.94-84.54 186.94-186.94s-83.349-186.94-186.94-186.94z" />
<glyph unicode="&#xe916;" glyph-name="user" d="M630.372 406.308c57.615 37.459 95.612 101.389 95.612 174.045 0 115.409-95.809 208.98-213.981 208.98s-213.983-93.571-213.983-208.98c0-72.655 38-136.586 95.615-174.045 0 0 0.018-0.018 0.036-0.018-0.018 0-0.018 0.018-0.018 0.018-137.912-40.595-245.296-149.905-279.872-287.435l0.018-0.019c5.635-6.63 11.484-13.114 17.457-19.469 1.444-1.549 2.96-3.027 4.44-4.544 4.601-4.774 9.255-9.472 14.034-14.074 1.979-1.894 3.994-3.725 6.009-5.587 4.422-4.109 8.899-8.166 13.463-12.122 2.265-1.952 4.565-3.885 6.848-5.798 4.476-3.744 9.005-7.418 13.623-11.008 2.426-1.894 4.868-3.763 7.311-5.626 4.672-3.514 9.415-6.931 14.212-10.272 2.479-1.728 4.922-3.482 7.436-5.171 5.064-3.418 10.218-6.688 15.407-9.926 2.336-1.446 4.618-2.944 6.972-4.371 5.992-3.61 12.090-7.053 18.242-10.432 1.623-0.89 3.21-1.85 4.851-2.72 7.953-4.25 16.031-8.32 24.234-12.173 0.196-0.083 0.41-0.173 0.606-0.262 7.828-3.654 15.781-7.123 23.823-10.394 2.497-1.030 5.046-1.933 7.561-2.912 5.813-2.259 11.626-4.493 17.546-6.547 3.139-1.094 6.313-2.086 9.469-3.13 5.386-1.779 10.806-3.501 16.263-5.088 3.459-1.011 6.936-1.952 10.431-2.893 5.279-1.427 10.593-2.784 15.96-4.058 3.62-0.851 7.258-1.67 10.913-2.451 5.367-1.152 10.753-2.195 16.173-3.174 3.674-0.659 7.329-1.338 11.038-1.914 5.599-0.89 11.234-1.638 16.887-2.349 3.566-0.454 7.115-0.96 10.699-1.325 6.241-0.666 12.536-1.133 18.831-1.568 3.049-0.211 6.063-0.525 9.112-0.678 9.398-0.525 18.831-0.819 28.353-0.819s18.956 0.294 28.353 0.781c3.049 0.16 6.081 0.474 9.112 0.685 6.312 0.435 12.607 0.902 18.831 1.562 3.584 0.384 7.133 0.87 10.699 1.325 5.653 0.717 11.288 1.466 16.887 2.355 3.691 0.589 7.364 1.248 11.038 1.914 5.421 0.973 10.824 2.022 16.173 3.168 3.656 0.787 7.293 1.6 10.913 2.458 5.349 1.267 10.662 2.63 15.962 4.058 3.475 0.941 6.97 1.882 10.432 2.893 5.472 1.6 10.874 3.322 16.262 5.082 3.155 1.043 6.349 2.035 9.466 3.136 5.901 2.074 11.731 4.282 17.549 6.547 2.515 0.973 5.062 1.901 7.558 2.906 8.006 3.277 15.923 6.707 23.718 10.362 0.23 0.109 0.48 0.211 0.71 0.314 8.205 3.853 16.282 7.93 24.237 12.173 1.638 0.877 3.226 1.83 4.851 2.72 6.15 3.379 12.25 6.829 18.24 10.432 2.355 1.408 4.653 2.906 6.97 4.371 5.19 3.238 10.342 6.528 15.411 9.926 2.496 1.69 4.954 3.43 7.437 5.171 4.794 3.36 9.536 6.778 14.208 10.278 2.464 1.843 4.89 3.725 7.315 5.619 4.595 3.59 9.146 7.264 13.619 11.008 2.304 1.914 4.602 3.853 6.848 5.798 4.563 3.955 9.043 8.013 13.466 12.122 1.997 1.862 4.026 3.712 6.010 5.594 4.774 4.595 9.446 9.299 14.029 14.067 1.466 1.536 2.982 3.014 4.442 4.544 5.978 6.362 11.827 12.838 17.459 19.475l0.019 0.013c-34.56 137.549-141.946 246.86-279.855 287.454z" />
<glyph unicode="&#xe917;" glyph-name="vk" d="M946.227 660.343c6.332 21.095 0 36.601-30.114 36.601h-99.581c-25.321 0-36.986-13.393-43.315-28.167 0 0-50.642-123.426-122.382-203.602-23.211-23.208-33.758-30.586-46.418-30.586-6.332 0-15.491 7.378-15.491 28.473v197.282c0 25.32-7.347 36.601-28.453 36.601h-156.481c-15.818 0-25.335-11.75-25.335-22.888 0-24.007 35.863-29.54 39.563-97.055v-146.642c0-32.151-5.806-37.982-18.466-37.982-33.758 0-115.867 123.989-164.575 265.853-9.545 27.576-19.119 38.714-44.568 38.714h-99.579c-28.451 0-34.141-13.393-34.141-28.167 0-26.374 33.764-157.193 157.192-330.203 82.296-118.144 198.218-182.201 303.716-182.201 63.303 0 71.128 14.225 71.128 38.73v89.301c0 28.45 5.996 34.125 26.032 34.125 14.78 0 40.095-7.381 99.18-64.347 67.513-67.507 78.638-97.809 116.622-97.809h99.578c28.45 0 42.675 14.225 34.469 42.3-8.977 27.981-41.213 68.568-83.988 116.693-23.211 27.432-58.027 56.971-68.568 71.74-14.774 18.99-10.556 27.426 0 44.297 0 0 121.316 170.906 133.976 228.932v0.009z" />
<glyph unicode="&#xe918;" glyph-name="instagram" d="M369.815 448c0 78.544 63.656 142.234 142.199 142.234s142.234-63.69 142.234-142.234c0-78.544-63.69-142.234-142.234-142.234s-142.199 63.69-142.199 142.234zM292.927 448c0-121.003 98.085-219.088 219.088-219.088s219.088 98.085 219.088 219.088c0 121.003-98.085 219.088-219.088 219.088s-219.088-98.085-219.088-219.088zM688.575 675.775c-0.003-10.127 2.995-20.025 8.619-28.448 5.621-8.422 13.616-14.987 22.969-18.867 9.355-3.88 19.649-4.898 29.582-2.927 9.933 1.974 19.058 6.847 26.22 14.003s12.043 16.279 14.023 26.209c1.98 9.932 0.97 20.227-2.901 29.584s-10.431 17.356-18.847 22.985c-8.42 5.629-18.315 8.636-28.444 8.64h-0.020c-13.574-0.006-26.59-5.4-36.19-14.996s-14.999-22.61-15.010-36.184v0zM339.641 100.705c-41.6 1.894-64.208 8.823-79.234 14.677-19.92 7.754-34.133 16.99-49.077 31.915-14.944 14.922-24.194 29.121-31.915 49.041-5.857 15.019-12.786 37.635-14.677 79.235-2.068 44.974-2.481 58.485-2.481 172.425s0.447 127.411 2.481 172.425c1.894 41.597 8.875 64.17 14.677 79.233 7.755 19.92 16.992 34.133 31.915 49.077s29.123 24.194 49.077 31.915c15.019 5.857 37.634 12.786 79.234 14.677 44.974 2.068 58.485 2.481 172.373 2.481s127.411-0.447 172.425-2.481c41.597-1.894 64.171-8.875 79.232-14.677 19.922-7.721 34.133-16.992 49.078-31.915s24.161-29.157 31.915-49.077c5.857-15.019 12.786-37.636 14.677-79.233 2.068-45.013 2.48-58.485 2.48-172.425s-0.412-127.414-2.48-172.425c-1.894-41.6-8.858-64.208-14.677-79.235-7.754-19.92-16.993-34.133-31.915-49.041-14.922-14.911-29.156-24.161-49.078-31.915-15.019-5.86-37.635-12.789-79.232-14.677-44.974-2.071-58.485-2.483-172.425-2.483s-127.414 0.412-172.373 2.483v0zM336.108 872.083c-45.423-2.068-76.459-9.271-103.564-19.818-28.071-10.892-51.835-25.504-75.581-49.213s-38.321-47.51-49.213-75.581c-10.547-27.122-17.749-58.144-19.818-103.564-2.103-45.494-2.584-60.038-2.584-175.906s0.481-130.412 2.584-175.906c2.068-45.426 9.271-76.442 19.818-103.563 10.892-28.055 25.47-51.883 49.213-75.583 23.743-23.697 47.51-38.289 75.581-49.212 27.156-10.547 58.141-17.749 103.564-19.82 45.517-2.068 60.038-2.583 175.906-2.583s130.412 0.481 175.906 2.583c45.423 2.071 76.442 9.273 103.563 19.82 28.055 10.923 51.834 25.503 75.583 49.212 23.745 23.708 38.289 47.528 49.212 75.583 10.547 27.122 17.783 58.143 19.817 103.563 2.071 45.528 2.551 60.038 2.551 175.906s-0.481 130.412-2.551 175.906c-2.068 45.426-9.27 76.459-19.817 103.564-10.923 28.054-25.503 51.835-49.212 75.581-23.711 23.747-47.528 38.321-75.548 49.213-27.156 10.547-58.177 17.783-103.563 19.818-45.494 2.068-60.038 2.584-175.906 2.584s-130.423-0.481-175.94-2.584z" />
<glyph unicode="&#xe919;" glyph-name="chevron-right" d="M535.555 277.339c-22.216-22.215-58.237-22.215-80.453 0s-22.217 58.237 0 80.452l80.596 80.595c5.312 5.312 5.312 13.924 0 19.236l-80.596 80.596c-22.217 22.217-22.217 58.237 0 80.453s58.237 22.216 80.453 0l148.169-148.172c12.425-12.424 12.425-32.567 0-44.991l-148.169-148.17z" />
<glyph unicode="&#xe91a;" glyph-name="month" d="M743.259 904.207c-74.24 37.021-154.427 55.793-238.332 55.793-83.901 0-164.087-18.77-238.331-55.793-55.946-27.898-106.846-65.937-149.352-111.366-18.502-19.774-13.977-50.794 7.862-66.807 21.133-15.495 50.582-11.054 68.733 7.848 80.512 83.841 191.506 131.104 311.093 131.104s230.581-47.262 311.091-131.104c18.152-18.901 47.6-23.343 68.73-7.848 21.839 16.013 26.364 47.033 7.861 66.807-42.508 45.429-93.408 83.468-149.354 111.366zM884.752 169.968c-21.13 15.498-50.582 11.055-68.73-7.845-80.514-83.846-191.508-131.107-311.091-131.107s-230.58 47.262-311.090 131.107c-18.15 18.901-47.599 23.343-68.733 7.849-21.84-16.014-26.365-47.037-7.862-66.812 42.508-45.426 93.407-83.464 149.353-111.364 74.242-37.022 154.427-55.792 238.332-55.792 83.901 0 164.088 18.771 238.332 55.792 55.942 27.9 106.847 65.938 149.35 111.368 18.503 19.775 13.978 50.794-7.861 66.804zM321.902 455.156l8.051 74.61c0.117 1.083-0.734 2.032-1.827 2.032-0.761 0-1.442-0.469-1.715-1.178l-22.827-59.455c-0.287-0.748-0.63-1.469-1.026-2.166l-77.026-134.924c-2.804-4.911-8.026-7.944-13.681-7.944h-6.189c-5.537 0-10.667 2.907-13.513 7.656l-81.32 135.708c-0.439 0.733-0.817 1.497-1.132 2.292l-23.412 59.061c-0.227 0.575-0.781 0.949-1.397 0.949-0.916 0-1.618-0.811-1.487-1.717l10.616-73.251c0.109-0.748 0.163-1.501 0.163-2.257v-183.816c0-8.7-7.053-15.754-15.754-15.754h-40.172c-8.701 0-15.754 7.054-15.754 15.754v354.462c0 8.701 7.053 15.754 15.754 15.754h44.129c5.599 0 10.777-2.971 13.601-7.805l98.548-168.638 17.784-43.114c0.249-0.603 0.837-0.996 1.49-0.996 0.677 0 1.282 0.421 1.514 1.059l15.728 42.988c0.284 0.776 0.628 1.528 1.030 2.249l92.488 166.165c2.78 4.995 8.048 8.092 13.765 8.092h43.357c8.7 0 15.754-7.053 15.754-15.754v-354.462c0-8.7-7.054-15.754-15.754-15.754h-44.032c-8.7 0-15.754 7.054-15.754 15.754v184.399zM462.423 625.219c0 8.701 7.054 15.754 15.754 15.754h197.317c8.7 0 15.754-7.053 15.754-15.754v-35.761c0-8.7-7.054-15.754-15.754-15.754h-121.777c-8.7 0-15.754-7.053-15.754-15.754v-58.368c0-8.7 7.054-15.754 15.754-15.754h107.993c8.7 0 15.754-7.054 15.754-15.754v-35.761c0-8.7-7.054-15.754-15.754-15.754h-107.993c-8.7 0-15.754-7.054-15.754-15.754v-62.779c0-8.7 7.054-15.754 15.754-15.754h124.534c8.7 0 15.754-7.054 15.754-15.754v-35.761c0-8.7-7.054-15.754-15.754-15.754h-200.074c-8.7 0-15.754 7.054-15.754 15.754v354.462zM998.908 281.368c1.564-6.262-0.796-12.954-6.459-16.053-10.145-5.553-22.197-9.724-36.163-12.516-18.011-3.675-36.576-5.514-55.69-5.514-23.158 0-45.214 3.493-66.166 10.476-20.586 7.353-38.782 18.932-54.587 34.737-15.805 16.175-28.487 36.943-38.046 62.306-9.188 25.73-13.785 56.793-13.785 93.184 0 37.86 5.148 69.474 15.439 94.838 10.661 25.732 24.261 46.316 40.802 61.755 16.908 15.807 35.655 27.018 56.241 33.634 20.586 6.984 41.169 10.476 61.755 10.476 22.055 0 40.617-1.47 55.69-4.411 9.496-1.809 17.952-3.827 25.364-6.053 7.412-2.228 11.39-9.973 9.637-17.514l-7.396-31.767c-2.284-9.808-13.151-15.056-22.93-12.641-3.742 0.924-7.688 1.711-11.843 2.36-11.394 1.838-25.364 2.757-41.905 2.757-30.511 0-55.138-10.844-73.886-32.532-18.381-21.689-27.569-55.324-27.569-100.903 0-19.85 2.206-38.046 6.617-54.587 4.411-16.175 11.028-30.141 19.85-41.905 9.188-11.394 20.401-20.401 33.634-27.018 13.6-6.25 29.223-9.374 46.868-9.374 16.542 0 30.511 1.654 41.905 4.962 3.651 1.059 7.148 2.213 10.496 3.462 9.952 3.71 21.894-1.241 24.47-11.544l7.656-30.618z" />
<glyph unicode="&#xe91b;" glyph-name="week" d="M230.886 421.51h-141.154v-161.556h-75.54v385.969h75.54v-157.144h141.154v157.144h75.54v-385.969h-75.54v161.556zM373.346 645.923h228.825v-67.269h-153.285v-89.875h139.5v-67.269h-139.5v-94.287h156.042v-67.269h-231.582v385.969zM1009.818 191.031h-53.484l-8.271 68.923h-248.123l-8.271-68.923h-53.484v136.192h40.802c2.576 4.045 6.802 13.048 12.682 27.018 5.884 13.97 11.764 33.634 17.644 58.998 5.884 25.73 10.847 57.71 14.887 95.941 4.045 38.597 5.884 84.178 5.514 136.743h231.030v-318.7h49.073v-136.192zM885.205 327.223v251.431h-85.465c-2.206-65.429-7.534-119.099-15.99-161.004-8.086-41.539-16.356-71.68-24.812-90.427h126.267zM750.316 904.207c-74.24 37.021-154.427 55.793-238.332 55.793-83.901 0-164.087-18.77-238.331-55.793-55.946-27.898-106.846-65.937-149.352-111.366-18.502-19.774-13.977-50.794 7.862-66.807 21.133-15.495 50.582-11.054 68.733 7.848 80.512 83.841 191.506 131.104 311.093 131.104s230.581-47.262 311.091-131.104c18.152-18.901 47.6-23.343 68.73-7.848 21.839 16.013 26.364 47.033 7.861 66.807-42.508 45.429-93.408 83.468-149.354 111.366zM891.809 169.968c-21.13 15.498-50.582 11.055-68.73-7.845-80.514-83.846-191.508-131.107-311.091-131.107s-230.58 47.262-311.090 131.107c-18.15 18.901-47.599 23.343-68.733 7.845-21.84-16.010-26.365-47.033-7.862-66.808 42.508-45.426 93.407-83.464 149.353-111.364 74.242-37.022 154.427-55.792 238.332-55.792 83.901 0 164.088 18.771 238.332 55.792 55.942 27.9 106.847 65.938 149.35 111.368 18.503 19.775 13.978 50.794-7.861 66.804z" />
</font>
</defs>
</svg>
